<svg width="550" height="125" xmlns="http://www.w3.org/2000/svg" shape-rendering="crispEdges">
  <rect x="0" y="0" width="25" height="25" fill="none" stroke="#dddddd" stroke-width="0.0" />
  <rect x="25" y="0" width="25" height="25" fill="none" stroke="#dddddd" stroke-width="0.0" />
  <rect x="50" y="0" width="25" height="25" fill="#458588" stroke="#dddddd" stroke-width="0.0" />
  <rect x="75" y="0" width="25" height="25" fill="none" stroke="#dddddd" stroke-width="0.0" />
  <rect x="100" y="0" width="25" height="25" fill="none" stroke="#dddddd" stroke-width="0.0" />
  <rect x="125" y="0" width="25" height="25" fill="none" stroke="#dddddd" stroke-width="0.0" />
  <rect x="150" y="0" width="25" height="25" fill="none" stroke="#dddddd" stroke-width="0.0" />
  <rect x="175" y="0" width="25" height="25" fill="none" stroke="#dddddd" stroke-width="0.0" />
  <rect x="200" y="0" width="25" height="25" fill="none" stroke="#dddddd" stroke-width="0.0" />
  <rect x="225" y="0" width="25" height="25" fill="none" stroke="#dddddd" stroke-width="0.0" />
  <rect x="250" y="0" width="25" height="25" fill="none" stroke="#dddddd" stroke-width="0.0" />
  <rect x="275" y="0" width="25" height="25" fill="none" stroke="#dddddd" stroke-width="0.0" />
  <rect x="300" y="0" width="25" height="25" fill="none" stroke="#dddddd" stroke-width="0.0" />
  <rect x="325" y="0" width="25" height="25" fill="none" stroke="#dddddd" stroke-width="0.0" />
  <rect x="350" y="0" width="25" height="25" fill="none" stroke="#dddddd" stroke-width="0.0" />
  <rect x="375" y="0" width="25" height="25" fill="none" stroke="#dddddd" stroke-width="0.0" />
  <rect x="400" y="0" width="25" height="25" fill="none" stroke="#dddddd" stroke-width="0.0" />
  <rect x="425" y="0" width="25" height="25" fill="none" stroke="#dddddd" stroke-width="0.0" />
  <rect x="450" y="0" width="25" height="25" fill="none" stroke="#dddddd" stroke-width="0.0" />
  <rect x="475" y="0" width="25" height="25" fill="none" stroke="#dddddd" stroke-width="0.0" />
  <rect x="500" y="0" width="25" height="25" fill="none" stroke="#dddddd" stroke-width="0.0" />
  <rect x="525" y="0" width="25" height="25" fill="none" stroke="#dddddd" stroke-width="0.0" />
  <rect x="0" y="25" width="25" height="25" fill="none" stroke="#dddddd" stroke-width="0.0" />
  <rect x="25" y="25" width="25" height="25" fill="none" stroke="#dddddd" stroke-width="0.0" />
  <rect x="50" y="25" width="25" height="25" fill="#458588" stroke="#dddddd" stroke-width="0.0" />
  <rect x="75" y="25" width="25" height="25" fill="none" stroke="#dddddd" stroke-width="0.0" />
  <rect x="100" y="25" width="25" height="25" fill="none" stroke="#dddddd" stroke-width="0.0" />
  <rect x="125" y="25" width="25" height="25" fill="none" stroke="#dddddd" stroke-width="0.0" />
  <rect x="150" y="25" width="25" height="25" fill="none" stroke="#dddddd" stroke-width="0.0" />
  <rect x="175" y="25" width="25" height="25" fill="none" stroke="#dddddd" stroke-width="0.0" />
  <rect x="200" y="25" width="25" height="25" fill="none" stroke="#dddddd" stroke-width="0.0" />
  <rect x="225" y="25" width="25" height="25" fill="none" stroke="#dddddd" stroke-width="0.0" />
  <rect x="250" y="25" width="25" height="25" fill="none" stroke="#dddddd" stroke-width="0.0" />
  <rect x="275" y="25" width="25" height="25" fill="none" stroke="#dddddd" stroke-width="0.0" />
  <rect x="300" y="25" width="25" height="25" fill="none" stroke="#dddddd" stroke-width="0.0" />
  <rect x="325" y="25" width="25" height="25" fill="none" stroke="#dddddd" stroke-width="0.0" />
  <rect x="350" y="25" width="25" height="25" fill="none" stroke="#dddddd" stroke-width="0.0" />
  <rect x="375" y="25" width="25" height="25" fill="none" stroke="#dddddd" stroke-width="0.0" />
  <rect x="400" y="25" width="25" height="25" fill="none" stroke="#dddddd" stroke-width="0.0" />
  <rect x="425" y="25" width="25" height="25" fill="none" stroke="#dddddd" stroke-width="0.0" />
  <rect x="450" y="25" width="25" height="25" fill="none" stroke="#dddddd" stroke-width="0.0" />
  <rect x="475" y="25" width="25" height="25" fill="none" stroke="#dddddd" stroke-width="0.0" />
  <rect x="500" y="25" width="25" height="25" fill="none" stroke="#dddddd" stroke-width="0.0" />
  <rect x="525" y="25" width="25" height="25" fill="none" stroke="#dddddd" stroke-width="0.0" />
  <rect x="0" y="50" width="25" height="25" fill="#458588" stroke="#dddddd" stroke-width="0.0" />
  <rect x="25" y="50" width="25" height="25" fill="#458588" stroke="#dddddd" stroke-width="0.0" />
  <rect x="50" y="50" width="25" height="25" fill="#458588" stroke="#dddddd" stroke-width="0.0" />
  <rect x="75" y="50" width="25" height="25" fill="none" stroke="#dddddd" stroke-width="0.0" />
  <rect x="100" y="50" width="25" height="25" fill="#458588" stroke="#dddddd" stroke-width="0.0" />
  <rect x="125" y="50" width="25" height="25" fill="#458588" stroke="#dddddd" stroke-width="0.0" />
  <rect x="150" y="50" width="25" height="25" fill="#458588" stroke="#dddddd" stroke-width="0.0" />
  <rect x="175" y="50" width="25" height="25" fill="#458588" stroke="#dddddd" stroke-width="0.0" />
  <rect x="200" y="50" width="25" height="25" fill="#458588" stroke="#dddddd" stroke-width="0.0" />
  <rect x="225" y="50" width="25" height="25" fill="none" stroke="#dddddd" stroke-width="0.0" />
  <rect x="250" y="50" width="25" height="25" fill="none" stroke="#dddddd" stroke-width="0.0" />
  <rect x="275" y="50" width="25" height="25" fill="#458588" stroke="#dddddd" stroke-width="0.0" />
  <rect x="300" y="50" width="25" height="25" fill="#458588" stroke="#dddddd" stroke-width="0.0" />
  <rect x="325" y="50" width="25" height="25" fill="none" stroke="#dddddd" stroke-width="0.0" />
  <rect x="350" y="50" width="25" height="25" fill="#458588" stroke="#dddddd" stroke-width="0.0" />
  <rect x="375" y="50" width="25" height="25" fill="#458588" stroke="#dddddd" stroke-width="0.0" />
  <rect x="400" y="50" width="25" height="25" fill="none" stroke="#dddddd" stroke-width="0.0" />
  <rect x="425" y="50" width="25" height="25" fill="#458588" stroke="#dddddd" stroke-width="0.0" />
  <rect x="450" y="50" width="25" height="25" fill="none" stroke="#dddddd" stroke-width="0.0" />
  <rect x="475" y="50" width="25" height="25" fill="#458588" stroke="#dddddd" stroke-width="0.0" />
  <rect x="500" y="50" width="25" height="25" fill="none" stroke="#dddddd" stroke-width="0.0" />
  <rect x="525" y="50" width="25" height="25" fill="#458588" stroke="#dddddd" stroke-width="0.0" />
  <rect x="0" y="75" width="25" height="25" fill="#458588" stroke="#dddddd" stroke-width="0.0" />
  <rect x="25" y="75" width="25" height="25" fill="none" stroke="#dddddd" stroke-width="0.0" />
  <rect x="50" y="75" width="25" height="25" fill="#458588" stroke="#dddddd" stroke-width="0.0" />
  <rect x="75" y="75" width="25" height="25" fill="none" stroke="#dddddd" stroke-width="0.0" />
  <rect x="100" y="75" width="25" height="25" fill="#458588" stroke="#dddddd" stroke-width="0.0" />
  <rect x="125" y="75" width="25" height="25" fill="none" stroke="#dddddd" stroke-width="0.0" />
  <rect x="150" y="75" width="25" height="25" fill="#458588" stroke="#dddddd" stroke-width="0.0" />
  <rect x="175" y="75" width="25" height="25" fill="none" stroke="#dddddd" stroke-width="0.0" />
  <rect x="200" y="75" width="25" height="25" fill="#458588" stroke="#dddddd" stroke-width="0.0" />
  <rect x="225" y="75" width="25" height="25" fill="none" stroke="#dddddd" stroke-width="0.0" />
  <rect x="250" y="75" width="25" height="25" fill="#458588" stroke="#dddddd" stroke-width="0.0" />
  <rect x="275" y="75" width="25" height="25" fill="#458588" stroke="#dddddd" stroke-width="0.0" />
  <rect x="300" y="75" width="25" height="25" fill="none" stroke="#dddddd" stroke-width="0.0" />
  <rect x="325" y="75" width="25" height="25" fill="none" stroke="#dddddd" stroke-width="0.0" />
  <rect x="350" y="75" width="25" height="25" fill="#458588" stroke="#dddddd" stroke-width="0.0" />
  <rect x="375" y="75" width="25" height="25" fill="none" stroke="#dddddd" stroke-width="0.0" />
  <rect x="400" y="75" width="25" height="25" fill="#458588" stroke="#dddddd" stroke-width="0.0" />
  <rect x="425" y="75" width="25" height="25" fill="#458588" stroke="#dddddd" stroke-width="0.0" />
  <rect x="450" y="75" width="25" height="25" fill="none" stroke="#dddddd" stroke-width="0.0" />
  <rect x="475" y="75" width="25" height="25" fill="#458588" stroke="#dddddd" stroke-width="0.0" />
  <rect x="500" y="75" width="25" height="25" fill="none" stroke="#dddddd" stroke-width="0.0" />
  <rect x="525" y="75" width="25" height="25" fill="#458588" stroke="#dddddd" stroke-width="0.0" />
  <rect x="0" y="100" width="25" height="25" fill="#458588" stroke="#dddddd" stroke-width="0.0" />
  <rect x="25" y="100" width="25" height="25" fill="#458588" stroke="#dddddd" stroke-width="0.0" />
  <rect x="50" y="100" width="25" height="25" fill="#458588" stroke="#dddddd" stroke-width="0.0" />
  <rect x="75" y="100" width="25" height="25" fill="none" stroke="#dddddd" stroke-width="0.0" />
  <rect x="100" y="100" width="25" height="25" fill="#458588" stroke="#dddddd" stroke-width="0.0" />
  <rect x="125" y="100" width="25" height="25" fill="none" stroke="#dddddd" stroke-width="0.0" />
  <rect x="150" y="100" width="25" height="25" fill="#458588" stroke="#dddddd" stroke-width="0.0" />
  <rect x="175" y="100" width="25" height="25" fill="none" stroke="#dddddd" stroke-width="0.0" />
  <rect x="200" y="100" width="25" height="25" fill="#458588" stroke="#dddddd" stroke-width="0.0" />
  <rect x="225" y="100" width="25" height="25" fill="none" stroke="#dddddd" stroke-width="0.0" />
  <rect x="250" y="100" width="25" height="25" fill="none" stroke="#dddddd" stroke-width="0.0" />
  <rect x="275" y="100" width="25" height="25" fill="#458588" stroke="#dddddd" stroke-width="0.0" />
  <rect x="300" y="100" width="25" height="25" fill="#458588" stroke="#dddddd" stroke-width="0.0" />
  <rect x="325" y="100" width="25" height="25" fill="none" stroke="#dddddd" stroke-width="0.0" />
  <rect x="350" y="100" width="25" height="25" fill="#458588" stroke="#dddddd" stroke-width="0.0" />
  <rect x="375" y="100" width="25" height="25" fill="none" stroke="#dddddd" stroke-width="0.0" />
  <rect x="400" y="100" width="25" height="25" fill="none" stroke="#dddddd" stroke-width="0.0" />
  <rect x="425" y="100" width="25" height="25" fill="#458588" stroke="#dddddd" stroke-width="0.0" />
  <rect x="450" y="100" width="25" height="25" fill="none" stroke="#dddddd" stroke-width="0.0" />
  <rect x="475" y="100" width="25" height="25" fill="none" stroke="#dddddd" stroke-width="0.0" />
  <rect x="500" y="100" width="25" height="25" fill="#458588" stroke="#dddddd" stroke-width="0.0" />
  <rect x="525" y="100" width="25" height="25" fill="none" stroke="#dddddd" stroke-width="0.0" />
</svg>